<svg width="16" height="18" viewBox="0 0 16 18" fill="none" xmlns="http://www.w3.org/2000/svg">
<path fill-rule="evenodd" clip-rule="evenodd" d="M4.87917 1.87861L4.8787 1.87909C4.31578 2.44136 4 3.20413 4 4.00001V8H10V4.00001C10 3.20413 9.68422 2.44136 9.1213 1.87909L9.12083 1.87861C8.55834 1.31601 7.79571 1 7 1C6.20429 1 5.44166 1.31601 4.87917 1.87861ZM3 4.00001V8L2 8C1.47 8 0.960999 8.21071 0.585999 8.58578C0.210999 8.96085 0 9.46956 0 10V16C0 16.5304 0.210999 17.0391 0.585999 17.4142C0.960999 17.7893 1.47 18 2 18H6.5V17H2C1.73514 17 1.48057 16.8946 1.2932 16.7072C1.10538 16.5193 1 16.2648 1 16V10C1 9.73513 1.1054 9.48063 1.29317 9.29282C1.48056 9.1054 1.73515 9 2 9H12C12.2648 9 12.5194 9.1054 12.7068 9.29282C12.8946 9.48063 13 9.73513 13 10V10.5H14V10C14 9.46956 13.789 8.96085 13.414 8.58578C13.039 8.21071 12.53 8 12 8L11 8V4.00001C11 2.93914 10.579 1.92172 9.828 1.17158C9.078 0.421425 8.061 0 7 0C5.939 0 4.922 0.421425 4.172 1.17158C3.421 1.92172 3 2.93914 3 4.00001ZM11.2929 17.2929L10 16L11.0607 15.6464L12 16.5858L13.8787 14.7071L16 14L12.7071 17.2929L12 18L11.2929 17.2929Z" fill="#FD7352"/>
</svg>
